# xmcd
#
# Track frame offsets:
#	182
#	12627
#	24500
#	33917
#	45440
#	58700
#	71760
#	82690
#	95055
#	104842
#	116732
#	128237
#	141307
#	149840
#	163027
#	173352
#	190800
#	202855
#	211307
#	221612
#	230535
#	242992
#	253047
#	264375
#
# Disc length: 3678
#
# Revision: 2
# Processed by: cddbd v1.5.1PL0 Copyright (c) Steve Scherf et al.
# Submitted via: EasyCDDAExtractor 5.1.0
# Normalized: r1:DSETVAR1
#
DISCID=640e5c18
DTITLE=Various Artist - Nostalgias CD 4
DYEAR=1900
DGENRE=
TTITLE0=Jay and The Americans - Cupo
TTITLE1=Ray Peterson - Corina, Corina
TTITLE2=Bobby Vee - Run to Him
TTITLE3=Ricky Nelson - Poor Litle Fool
TTITLE4=Trini Lopez - If I had a Hammer
TTITLE5=Gene Pitney - Only love can break a heart
TTITLE6=Bruce Channel - Hey Baby
TTITLE7=The Shirelles - Soldier Boy
TTITLE8=Tommy Roe - Sheila
TTITLE9=The Drifters - Up on the Roof
TTITLE10=Chubby Checker - Limbo Rock
TTITLE11=Fast Domino - Jambalaya
TTITLE12=The Chiffons - He's so fine
TTITLE13=The Drifters - On Broadway
TTITLE14=The Crystals - Da Doo Ron Ron
TTITLE15=Trini Lopez - This Land is your Land
TTITLE16=Dion - Love come to me
TTITLE17=Box tops - The letter
TTITLE18=Lesley Gore - It's my party
TTITLE19=Jimmy Gilmer - Sugar shack
TTITLE20=Nino Tempo and April Stevens - Deep Purple
TTITLE21=The Angels - My Boyfriend's back
TTITLE22=Jan and Dean - Surf city
TTITLE23=The Cascades - Rhythm of the rain
EXTD=
EXTT0=
EXTT1=
EXTT2=
EXTT3=
EXTT4=
EXTT5=
EXTT6=
EXTT7=
EXTT8=
EXTT9=
EXTT10=
EXTT11=
EXTT12=
EXTT13=
EXTT14=
EXTT15=
EXTT16=
EXTT17=
EXTT18=
EXTT19=
EXTT20=
EXTT21=
EXTT22=
EXTT23=
PLAYORDER=
